# Blender v2.90.0 OBJ File: ''
# www.blender.org
o Cylinder
v -1.002807 1.327767 0.123802
v -1.292993 1.327767 0.123802
v -1.002807 1.326432 0.110341
v -1.292993 1.326432 0.110341
v -1.002807 1.322478 0.097397
v -1.292993 1.322478 0.097397
v -1.002807 1.316057 0.085468
v -1.292993 1.316057 0.085468
v -1.002807 1.307415 0.075012
v -1.292993 1.307415 0.075012
v -1.002807 1.296886 0.066431
v -1.292993 1.296886 0.066431
v -1.002807 1.284873 0.060054
v -1.292993 1.284873 0.060054
v -1.002807 1.271838 0.056128
v -1.292993 1.271838 0.056128
v -1.002807 1.258283 0.054802
v -1.292993 1.258283 0.054802
v -1.002807 1.244727 0.056128
v -1.292993 1.244727 0.056128
v -1.002807 1.231692 0.060054
v -1.292993 1.231692 0.060054
v -1.002807 1.219679 0.066431
v -1.292993 1.219679 0.066431
v -1.002807 1.209150 0.075012
v -1.292993 1.209150 0.075012
v -1.002807 1.200508 0.085468
v -1.292993 1.200508 0.085468
v -1.002807 1.194087 0.097397
v -1.292993 1.194087 0.097397
v -1.002807 1.190133 0.110341
v -1.292993 1.190133 0.110341
v -1.002807 1.188798 0.123802
v -1.292993 1.188798 0.123802
v -1.002807 1.190133 0.137263
v -1.292993 1.190133 0.137263
v -1.002807 1.194087 0.150207
v -1.292993 1.194087 0.150207
v -1.002807 1.200508 0.162136
v -1.292993 1.200508 0.162136
v -1.002807 1.209150 0.172592
v -1.292993 1.209150 0.172592
v -1.002807 1.219679 0.181173
v -1.292993 1.219679 0.181173
v -1.002807 1.231692 0.187550
v -1.292993 1.231692 0.187550
v -1.002807 1.244727 0.191476
v -1.292993 1.244727 0.191476
v -1.002807 1.258283 0.192802
v -1.292993 1.258283 0.192802
v -1.002807 1.271838 0.191476
v -1.292993 1.271838 0.191476
v -1.002807 1.284873 0.187550
v -1.292993 1.284873 0.187550
v -1.002807 1.296886 0.181173
v -1.292993 1.296886 0.181173
v -1.002807 1.307415 0.172592
v -1.292993 1.307415 0.172592
v -1.002807 1.316057 0.162136
v -1.292993 1.316057 0.162136
v -1.002807 1.322478 0.150207
v -1.292993 1.322478 0.150207
v -1.002807 1.326432 0.137263
v -1.292993 1.326432 0.137263
v -1.414245 1.114494 -1.147177
v -1.414245 -1.185506 -1.147177
v -1.414245 1.114494 1.432824
v -1.414245 -1.185506 1.432824
v -1.714245 1.114494 -1.147177
v -1.714245 -1.185506 -1.147177
v -1.714245 1.114494 1.432824
v -1.714245 -1.185506 1.432824
v 3.141321 1.114494 -1.147177
v 3.141322 -1.185506 -1.147177
v 3.141321 1.114494 1.432823
v 3.141321 -1.185506 1.432823
v 2.841321 1.114494 -1.147177
v 2.841321 -1.185506 -1.147177
v 2.841321 1.114494 1.432824
v 2.841321 -1.185506 1.432824
v 3.030773 0.896526 -1.157176
v -1.543513 0.896527 -1.157176
v 3.030773 0.896526 1.442824
v -1.543513 0.896527 1.442824
v 3.030773 1.196526 -1.157176
v -1.543513 1.196527 -1.157176
v 3.030773 1.196526 1.442824
v -1.543513 1.196527 1.442824
v -1.105368 1.279397 0.801376
v -1.105368 1.012190 0.801376
v -1.105368 1.279397 0.164972
v -1.105368 1.012190 0.164972
v -1.190501 1.279397 0.801376
v -1.190501 1.012190 0.801376
v -1.190501 1.279397 0.164972
v -1.190501 1.012190 0.164972
v 2.456384 1.182859 -0.400665
v -0.392102 1.182859 -0.400665
v 2.456384 1.182859 1.207758
v -0.392102 1.182859 1.207758
v 2.456384 1.221181 -0.400665
v -0.392102 1.221181 -0.400665
v 2.456384 1.221181 1.207758
v -0.392102 1.221181 1.207758
v 0.448241 1.294311 0.397397
v 0.448241 1.027103 0.397397
v -0.188163 1.294311 0.397397
v -0.188163 1.027103 0.397397
v 0.448241 1.294311 0.482530
v 0.448241 1.027103 0.482530
v -0.188163 1.294311 0.482530
v -0.188163 1.027103 0.482530
v 0.431162 1.294311 0.121761
v 0.431162 1.027103 0.121761
v 0.431162 1.294311 0.758165
v 0.431162 1.027103 0.758165
v 0.516295 1.294311 0.121761
v 0.516295 1.027103 0.121761
v 0.516295 1.294311 0.758165
v 0.516295 1.027103 0.758165
v -0.191182 1.215829 0.399255
v -0.192318 1.217304 0.480235
v -0.192338 1.298293 0.481694
v -0.191202 1.296818 0.400714
v -0.282567 1.257061 0.439200
v 0.430828 1.208817 0.755252
v 0.511816 1.210292 0.755252
v 0.513275 1.291281 0.755252
v 0.432287 1.289806 0.755252
v 0.472052 1.250049 0.846068
v 2.051620 1.266664 0.397397
v 2.051620 1.054751 0.397397
v 0.476305 1.266664 0.397397
v 0.476305 1.054751 0.397397
v 2.051620 1.266664 0.482530
v 2.051620 1.054751 0.482530
v 0.476305 1.266664 0.482530
v 0.476305 1.054751 0.482530
v 0.513275 1.208817 0.124644
v 0.432287 1.210292 0.124644
v 0.430828 1.291281 0.124644
v 0.511816 1.289806 0.124644
v 0.472052 1.250049 0.033828
vt 0.670960 0.784045
vt 0.670960 0.802583
vt 0.672768 0.802583
vt 0.672768 0.784045
vt 0.674507 0.802583
vt 0.674507 0.784045
vt 0.676109 0.802583
vt 0.676109 0.784045
vt 0.677514 0.802583
vt 0.625079 0.784045
vt 0.625079 0.802583
vt 0.626484 0.802583
vt 0.626484 0.784045
vt 0.628087 0.802583
vt 0.628087 0.784045
vt 0.629825 0.802583
vt 0.629825 0.784045
vt 0.631634 0.802583
vt 0.631634 0.784045
vt 0.633442 0.802583
vt 0.633442 0.784045
vt 0.635181 0.802583
vt 0.635181 0.784045
vt 0.636783 0.802583
vt 0.636783 0.784045
vt 0.638188 0.802583
vt 0.638188 0.784045
vt 0.639593 0.802583
vt 0.639593 0.784045
vt 0.641195 0.802583
vt 0.641195 0.784045
vt 0.642934 0.802583
vt 0.642934 0.784045
vt 0.644742 0.802583
vt 0.644742 0.784045
vt 0.646551 0.802583
vt 0.646551 0.784045
vt 0.648290 0.802583
vt 0.648290 0.784045
vt 0.649892 0.802583
vt 0.649892 0.784045
vt 0.651297 0.802583
vt 0.664405 0.802583
vt 0.664405 0.784045
vt 0.663001 0.784045
vt 0.663001 0.802583
vt 0.661398 0.784045
vt 0.661398 0.802583
vt 0.659659 0.784045
vt 0.659659 0.802583
vt 0.657851 0.784045
vt 0.657851 0.802583
vt 0.656043 0.784045
vt 0.656043 0.802583
vt 0.654304 0.784045
vt 0.654304 0.802583
vt 0.652701 0.784045
vt 0.652701 0.802583
vt 0.651297 0.784045
vt 0.664405 0.784045
vt 0.664405 0.802583
vt 0.665810 0.802583
vt 0.665810 0.784045
vt 0.667413 0.802583
vt 0.566400 0.788804
vt 0.584849 0.786987
vt 0.574716 0.778671
vt 0.667413 0.784045
vt 0.669151 0.802583
vt 0.669151 0.784045
vt 0.753388 0.780220
vt 0.748007 0.797960
vt 0.759568 0.791781
vt 0.984223 0.693179
vt 0.984223 0.346589
vt 0.965057 0.346589
vt 0.482323 1.000000
vt 0.482323 0.693179
vt 0.463157 0.693179
vt 0.613643 0.346589
vt 0.306821 0.346589
vt 0.306821 0.693179
vt 0.965057 0.346589
vt 0.945892 0.346589
vt 0.945892 0.693179
vt 0.306821 0.000000
vt 0.000000 0.000000
vt 0.000000 0.346589
vt 0.501488 0.693179
vt 0.501488 1.000000
vt 0.520654 1.000000
vt 0.965057 0.346589
vt 0.984223 0.346589
vt 0.984223 0.000000
vt 0.463157 1.000000
vt 0.463157 0.693179
vt 0.443992 0.693179
vt 0.306821 0.346589
vt 0.000000 0.346589
vt 0.000000 0.693179
vt 0.945892 0.346589
vt 0.965057 0.346589
vt 0.965057 0.000000
vt 0.613643 0.000000
vt 0.306821 0.000000
vt 0.306821 0.346589
vt 0.482323 0.693179
vt 0.482323 1.000000
vt 0.501488 1.000000
vt 0.945891 0.000000
vt 0.905871 0.000000
vt 0.905871 0.349276
vt 0.403971 0.693179
vt 0.403971 0.985407
vt 0.443992 0.985407
vt 0.905871 0.000000
vt 0.613643 0.000000
vt 0.613643 0.349276
vt 0.945891 0.349276
vt 0.905871 0.349276
vt 0.905871 0.698552
vt 0.613643 0.698552
vt 0.905871 0.698552
vt 0.905871 0.349276
vt 0.403971 0.985407
vt 0.403971 0.693179
vt 0.363951 0.693179
vt 0.556300 0.778671
vt 0.591945 0.778671
vt 0.591945 0.693179
vt 0.776797 0.815511
vt 0.776797 0.779866
vt 0.771359 0.779866
vt 0.649289 0.784045
vt 0.684934 0.784045
vt 0.684934 0.698552
vt 0.584849 0.778671
vt 0.584849 0.814317
vt 0.590288 0.814317
vt 0.804218 0.784045
vt 0.809657 0.784045
vt 0.809657 0.698552
vt 0.804218 0.698552
vt 0.798780 0.698552
vt 0.798780 0.784045
vt 0.608494 0.693179
vt 0.603382 0.693179
vt 0.603382 0.909249
vt 0.793667 0.698552
vt 0.793667 0.880528
vt 0.798780 0.880528
vt 0.181976 0.693179
vt 0.000000 0.693179
vt 0.000000 0.909249
vt 0.613606 0.693179
vt 0.608494 0.693179
vt 0.608494 0.909249
vt 0.363951 0.693179
vt 0.181976 0.693179
vt 0.181976 0.909249
vt 0.793667 0.880528
vt 0.793667 0.698552
vt 0.788555 0.698552
vt 0.741473 0.779866
vt 0.777119 0.779866
vt 0.777119 0.739209
vt 0.554963 0.778671
vt 0.554963 0.814317
vt 0.566400 0.814317
vt 0.777119 0.739209
vt 0.777119 0.698552
vt 0.741473 0.698552
vt 0.554963 0.814317
vt 0.554963 0.778671
vt 0.543527 0.778671
vt 0.532090 0.778671
vt 0.520654 0.778671
vt 0.520654 0.819328
vt 0.543527 0.778671
vt 0.532090 0.778671
vt 0.532090 0.819328
vt 0.613643 0.784045
vt 0.649289 0.784045
vt 0.649289 0.698552
vt 0.798780 0.784045
vt 0.798780 0.819690
vt 0.804218 0.819690
vt 0.520654 0.778671
vt 0.556300 0.778671
vt 0.556300 0.693179
vt 0.682953 0.819690
vt 0.682953 0.784045
vt 0.677514 0.784045
vt 0.809657 0.784045
vt 0.815096 0.784045
vt 0.815096 0.698552
vt 0.815096 0.784045
vt 0.820535 0.784045
vt 0.820535 0.698552
vt 0.584238 0.805081
vt 0.576822 0.797120
vt 0.576308 0.805081
vt 0.732380 0.807142
vt 0.725065 0.799191
vt 0.724546 0.807142
vt 0.706537 0.810072
vt 0.706537 0.799191
vt 0.695738 0.799583
vt 0.757183 0.809194
vt 0.757183 0.798315
vt 0.751381 0.803524
vt 0.724546 0.807188
vt 0.717281 0.799191
vt 0.716660 0.807188
vt 0.804218 0.796245
vt 0.809392 0.796245
vt 0.806852 0.784045
vt 0.601854 0.793818
vt 0.591945 0.798125
vt 0.601854 0.807122
vt 0.737552 0.799433
vt 0.732380 0.799191
vt 0.732380 0.809995
vt 0.711594 0.810598
vt 0.716660 0.811653
vt 0.716660 0.799191
vt 0.751381 0.798315
vt 0.741473 0.802622
vt 0.751381 0.811618
vt 0.713204 0.698552
vt 0.684934 0.698552
vt 0.684934 0.799191
vt 0.613643 0.784045
vt 0.613643 0.812314
vt 0.625079 0.812314
vt 0.741473 0.698552
vt 0.713204 0.698552
vt 0.713204 0.799191
vt 0.771359 0.808135
vt 0.771359 0.779866
vt 0.759922 0.779866
vt 0.603382 0.693179
vt 0.591945 0.693179
vt 0.591945 0.793818
vt 0.777119 0.799191
vt 0.788555 0.799191
vt 0.788555 0.698552
vt 0.804218 0.807651
vt 0.809284 0.808706
vt 0.809284 0.796245
vt 0.576308 0.797120
vt 0.566400 0.801428
vt 0.576308 0.810423
vt 0.782291 0.799433
vt 0.777119 0.799191
vt 0.777119 0.809995
vt 0.711594 0.799191
vt 0.706537 0.800283
vt 0.711594 0.811672
vt 0.684934 0.811390
vt 0.695738 0.811390
vt 0.690238 0.799191
vt 0.677514 0.784045
vt 0.651297 0.784045
vt 0.651297 0.802583
vt 0.576533 0.797120
vt 0.572934 0.796766
vt 0.574716 0.797120
vt 0.571255 0.796070
vt 0.569744 0.795061
vt 0.567450 0.792265
vt 0.568459 0.793776
vt 0.566754 0.790586
vt 0.566754 0.785205
vt 0.566400 0.786987
vt 0.567450 0.783526
vt 0.568459 0.782015
vt 0.569744 0.780730
vt 0.571255 0.779721
vt 0.572934 0.779026
vt 0.578315 0.779026
vt 0.576533 0.778671
vt 0.581505 0.780730
vt 0.579994 0.779721
vt 0.583799 0.783526
vt 0.582790 0.782015
vt 0.584495 0.785205
vt 0.584495 0.790586
vt 0.584849 0.788804
vt 0.583799 0.792265
vt 0.582790 0.793776
vt 0.579994 0.796070
vt 0.581505 0.795061
vt 0.578315 0.796766
vt 0.741827 0.786399
vt 0.743532 0.783210
vt 0.742523 0.784721
vt 0.746328 0.780915
vt 0.744817 0.781925
vt 0.749789 0.779866
vt 0.748007 0.780220
vt 0.751606 0.779866
vt 0.756578 0.781925
vt 0.755067 0.780915
vt 0.757863 0.783210
vt 0.758872 0.784721
vt 0.759568 0.786399
vt 0.759922 0.788182
vt 0.759922 0.789999
vt 0.757863 0.794971
vt 0.758872 0.793460
vt 0.755067 0.797265
vt 0.756578 0.796255
vt 0.751606 0.798315
vt 0.753388 0.797960
vt 0.749789 0.798315
vt 0.744817 0.796255
vt 0.746328 0.797265
vt 0.742523 0.793460
vt 0.743532 0.794971
vt 0.741827 0.791781
vt 0.741473 0.789999
vt 0.741473 0.788182
vt 0.965057 0.693179
vt 0.463157 1.000000
vt 0.613643 0.693179
vt 0.965057 0.693179
vt 0.306821 0.346589
vt 0.520654 0.693179
vt 0.965057 0.000000
vt 0.443992 1.000000
vt 0.306821 0.693179
vt 0.945892 0.000000
vt 0.613643 0.346589
vt 0.501488 0.693179
vt 0.945892 0.349276
vt 0.443992 0.693179
vt 0.905871 0.349276
vt 0.945891 0.698552
vt 0.613643 0.349276
vt 0.363951 0.985407
vt 0.556300 0.693179
vt 0.771359 0.815511
vt 0.649289 0.698552
vt 0.590288 0.778671
vt 0.804218 0.698552
vt 0.804218 0.784045
vt 0.608494 0.909249
vt 0.798780 0.698552
vt 0.181976 0.909249
vt 0.613606 0.909249
vt 0.363951 0.909249
vt 0.788555 0.880528
vt 0.741473 0.739209
vt 0.566400 0.778671
vt 0.741473 0.739209
vt 0.543527 0.814317
vt 0.532090 0.819328
vt 0.543527 0.819328
vt 0.613643 0.698552
vt 0.804218 0.784045
vt 0.520654 0.693179
vt 0.677514 0.819690
vt 0.809657 0.698552
vt 0.815096 0.698552
vt 0.695738 0.810463
vt 0.737552 0.810237
vt 0.713204 0.799191
vt 0.625079 0.784045
vt 0.741473 0.799191
vt 0.759922 0.808135
vt 0.603382 0.793818
vt 0.777119 0.698552
vt 0.782291 0.810237
vn 0.0000 0.9951 -0.0987
vn -0.0000 0.9564 -0.2921
vn -0.0000 0.8805 -0.4740
vn -0.0000 0.7708 -0.6370
vn 0.0000 0.6317 -0.7752
vn -0.0000 0.4688 -0.8833
vn -0.0000 0.2884 -0.9575
vn -0.0000 0.0973 -0.9953
vn -0.0000 -0.0973 -0.9953
vn -0.0000 -0.2884 -0.9575
vn -0.0000 -0.4688 -0.8833
vn 0.0000 -0.6317 -0.7752
vn -0.0000 -0.7708 -0.6370
vn -0.0000 -0.8805 -0.4740
vn -0.0000 -0.9564 -0.2921
vn 0.0000 -0.9951 -0.0987
vn 0.0000 -0.9951 0.0987
vn 0.0000 -0.9564 0.2921
vn 0.0000 -0.8805 0.4740
vn 0.0000 -0.7708 0.6370
vn 0.0000 -0.6317 0.7752
vn 0.0000 -0.4688 0.8833
vn 0.0000 -0.2884 0.9575
vn 0.0000 -0.0973 0.9953
vn 0.0000 0.0973 0.9953
vn 0.0000 0.2884 0.9575
vn 0.0000 0.4688 0.8833
vn 0.0000 0.6317 0.7752
vn 0.0000 0.7708 0.6370
vn 0.0000 0.8805 0.4740
vn -1.0000 -0.0000 0.0000
vn 0.0000 0.9564 0.2922
vn 0.0000 0.9951 0.0987
vn 1.0000 0.0000 0.0000
vn 0.0000 -1.0000 0.0000
vn 0.0000 0.0000 -1.0000
vn 0.0000 1.0000 0.0000
vn 0.0000 0.0000 1.0000
vn -0.4073 -0.9132 0.0109
vn -0.4199 -0.0165 0.9074
vn 0.9999 0.0000 0.0140
vn -0.4068 0.9132 -0.0223
vn -0.3942 0.0165 -0.9189
vn 0.0166 -0.9132 0.4071
vn 0.9132 -0.0165 0.4071
vn -0.0166 0.9132 0.4071
vn -0.9132 0.0165 0.4071
vn -0.0166 -0.9132 -0.4071
vn -0.9132 -0.0165 -0.4071
vn 0.0166 0.9132 -0.4071
vn 0.9132 0.0165 -0.4071
vn 0.0000 0.9564 -0.2922
vn -1.0000 -0.0001 0.0000
vn -1.0000 0.0001 0.0000
vn 0.0000 0.9564 0.2921
vn 1.0000 0.0001 0.0000
vn 1.0000 -0.0001 0.0000
s off
f 2/1/1 1/2/1 3/3/1
f 4/4/2 3/3/2 5/5/2
f 6/6/3 5/5/3 7/7/3
f 8/8/4 7/7/4 9/9/4
f 10/10/5 9/11/5 11/12/5
f 12/13/6 11/12/6 13/14/6
f 14/15/7 13/14/7 15/16/7
f 16/17/8 15/16/8 17/18/8
f 18/19/9 17/18/9 19/20/9
f 20/21/10 19/20/10 21/22/10
f 22/23/11 21/22/11 23/24/11
f 24/25/12 23/24/12 25/26/12
f 26/27/13 25/26/13 27/28/13
f 28/29/14 27/28/14 29/30/14
f 30/31/15 29/30/15 31/32/15
f 32/33/16 31/32/16 33/34/16
f 34/35/17 33/34/17 35/36/17
f 36/37/18 35/36/18 37/38/18
f 38/39/19 37/38/19 39/40/19
f 40/41/20 39/40/20 41/42/20
f 42/43/21 41/44/21 43/45/21
f 44/46/22 43/45/22 45/47/22
f 46/48/23 45/47/23 47/49/23
f 48/50/24 47/49/24 49/51/24
f 50/52/25 49/51/25 51/53/25
f 52/54/26 51/53/26 53/55/26
f 54/56/27 53/55/27 55/57/27
f 56/58/28 55/57/28 57/59/28
f 58/60/29 57/61/29 59/62/29
f 60/63/30 59/62/30 61/64/30
f 54/65/31 22/66/31 38/67/31
f 62/68/32 61/64/32 63/69/32
f 64/70/33 63/69/33 1/2/33
f 15/71/34 47/72/34 31/73/34
f 65/74/35 67/75/35 71/76/35
f 67/77/36 68/78/36 72/79/36
f 71/80/34 72/81/34 70/82/34
f 66/83/37 70/84/37 72/85/37
f 65/86/31 66/87/31 68/88/31
f 69/89/38 70/90/38 66/91/38
f 77/92/35 73/93/35 75/94/35
f 75/95/36 76/96/36 80/97/36
f 79/98/34 80/99/34 78/100/34
f 74/101/37 78/102/37 80/103/37
f 73/104/31 74/105/31 76/106/31
f 77/107/38 78/108/38 74/109/38
f 85/110/31 81/111/31 83/112/31
f 83/113/36 84/114/36 88/115/36
f 87/116/35 88/117/35 86/118/35
f 82/119/34 86/120/34 88/121/34
f 81/122/37 82/123/37 84/124/37
f 85/125/38 86/126/38 82/127/38
f 90/128/31 89/129/31 91/130/31
f 92/131/38 91/132/38 95/133/38
f 96/134/34 95/135/34 93/136/34
f 94/137/36 93/138/36 89/139/36
f 95/140/35 91/141/35 89/142/35
f 92/143/37 96/144/37 94/145/37
f 101/146/31 97/147/31 99/148/31
f 99/149/36 100/150/36 104/151/36
f 103/152/35 104/153/35 102/154/35
f 98/155/34 102/156/34 104/157/34
f 97/158/37 98/159/37 100/160/37
f 101/161/38 102/162/38 98/163/38
f 106/164/38 105/165/38 107/166/38
f 108/167/34 107/168/34 111/169/34
f 111/170/36 109/171/36 110/172/36
f 110/173/31 109/174/31 105/175/31
f 111/176/35 107/177/35 105/178/35
f 108/179/37 112/180/37 110/181/37
f 114/182/34 113/183/34 115/184/34
f 116/185/36 115/186/36 119/187/36
f 120/188/31 119/189/31 117/190/31
f 118/191/38 117/192/38 113/193/38
f 119/194/35 115/195/35 113/196/35
f 116/197/37 120/198/37 118/199/37
f 121/200/39 122/201/39 125/202/39
f 122/203/40 123/204/40 125/205/40
f 122/206/41 121/207/41 124/208/41
f 123/209/42 124/210/42 125/211/42
f 124/212/43 121/213/43 125/214/43
f 126/215/44 127/216/44 130/217/44
f 127/218/45 128/219/45 130/220/45
f 127/221/36 126/222/36 129/223/36
f 128/224/46 129/225/46 130/226/46
f 129/227/47 126/228/47 130/229/47
f 132/230/38 131/231/38 133/232/38
f 134/233/34 133/234/34 137/235/34
f 138/236/36 137/237/36 135/238/36
f 136/239/31 135/240/31 131/241/31
f 137/242/35 133/243/35 131/244/35
f 134/245/37 138/246/37 136/247/37
f 139/248/48 140/249/48 143/250/48
f 140/251/49 141/252/49 143/253/49
f 140/254/38 139/255/38 142/256/38
f 141/257/50 142/258/50 143/259/50
f 142/260/51 139/261/51 143/262/51
f 2/1/1 3/3/1 4/4/1
f 4/4/52 5/5/52 6/6/52
f 6/6/3 7/7/3 8/8/3
f 8/8/4 9/9/4 10/263/4
f 10/10/5 11/12/5 12/13/5
f 12/13/6 13/14/6 14/15/6
f 14/15/7 15/16/7 16/17/7
f 16/17/8 17/18/8 18/19/8
f 18/19/9 19/20/9 20/21/9
f 20/21/10 21/22/10 22/23/10
f 22/23/11 23/24/11 24/25/11
f 24/25/12 25/26/12 26/27/12
f 26/27/13 27/28/13 28/29/13
f 28/29/14 29/30/14 30/31/14
f 30/31/15 31/32/15 32/33/15
f 32/33/16 33/34/16 34/35/16
f 34/35/17 35/36/17 36/37/17
f 36/37/18 37/38/18 38/39/18
f 38/39/19 39/40/19 40/41/19
f 40/41/20 41/42/20 42/264/20
f 42/43/21 43/45/21 44/46/21
f 44/46/22 45/47/22 46/48/22
f 46/48/23 47/49/23 48/50/23
f 48/50/24 49/51/24 50/52/24
f 50/52/25 51/53/25 52/54/25
f 52/54/26 53/55/26 54/56/26
f 54/56/27 55/57/27 56/58/27
f 56/58/28 57/59/28 58/265/28
f 58/60/29 59/62/29 60/63/29
f 60/63/30 61/64/30 62/68/30
f 6/266/53 2/267/53 4/268/53
f 2/267/54 6/266/54 64/269/54
f 64/269/31 6/266/31 62/270/31
f 62/270/31 58/271/31 60/272/31
f 58/271/31 54/65/31 56/273/31
f 54/65/31 50/274/31 52/275/31
f 50/274/31 54/65/31 48/276/31
f 48/276/31 54/65/31 46/277/31
f 46/277/31 38/67/31 44/278/31
f 44/278/31 38/67/31 42/279/31
f 42/279/31 38/67/31 40/280/31
f 38/67/31 34/281/31 36/282/31
f 34/281/31 30/283/31 32/284/31
f 30/283/31 26/285/31 28/286/31
f 26/285/31 22/66/31 24/287/31
f 22/66/31 18/288/31 20/289/31
f 18/288/31 22/66/31 16/290/31
f 16/290/31 22/66/31 14/291/31
f 14/291/31 10/292/31 12/293/31
f 10/292/31 6/266/31 8/294/31
f 62/270/31 6/266/31 58/271/31
f 58/271/31 6/266/31 54/65/31
f 38/67/31 22/66/31 34/281/31
f 34/281/31 22/66/31 30/283/31
f 30/283/31 22/66/31 26/285/31
f 14/291/31 22/66/31 10/292/31
f 10/292/31 22/66/31 6/266/31
f 54/65/31 38/67/31 46/277/31
f 6/266/31 22/66/31 54/65/31
f 62/68/55 63/69/55 64/70/55
f 64/70/33 1/2/33 2/1/33
f 63/295/34 3/296/34 1/297/34
f 3/296/56 7/298/56 5/299/56
f 7/298/56 11/300/56 9/301/56
f 11/300/34 7/298/34 13/302/34
f 13/302/34 7/298/34 15/71/34
f 15/71/34 19/303/34 17/304/34
f 19/303/34 15/71/34 21/305/34
f 21/305/34 15/71/34 23/306/34
f 23/306/34 31/73/34 25/307/34
f 25/307/34 31/73/34 27/308/34
f 27/308/57 31/73/57 29/309/57
f 31/73/34 35/310/34 33/311/34
f 35/310/57 39/312/57 37/313/57
f 39/312/57 43/314/57 41/315/57
f 43/314/34 47/72/34 45/316/34
f 47/72/34 51/317/34 49/318/34
f 51/317/34 55/319/34 53/320/34
f 55/319/34 63/295/34 57/321/34
f 57/321/34 63/295/34 59/322/34
f 59/322/56 63/295/56 61/323/56
f 63/295/34 7/298/34 3/296/34
f 31/73/34 47/72/34 35/310/34
f 35/310/34 47/72/34 39/312/34
f 39/312/34 47/72/34 43/314/34
f 47/72/34 63/295/34 51/317/34
f 51/317/34 63/295/34 55/319/34
f 63/295/34 15/71/34 7/298/34
f 15/71/34 31/73/34 23/306/34
f 63/295/34 47/72/34 15/71/34
f 65/74/35 71/76/35 69/324/35
f 67/77/36 72/79/36 71/325/36
f 71/80/34 70/82/34 69/326/34
f 66/83/37 72/85/37 68/327/37
f 65/86/31 68/88/31 67/328/31
f 69/89/38 66/91/38 65/329/38
f 77/92/35 75/94/35 79/330/35
f 75/95/36 80/97/36 79/331/36
f 79/98/34 78/100/34 77/332/34
f 74/101/37 80/103/37 76/333/37
f 73/104/31 76/106/31 75/334/31
f 77/107/38 74/109/38 73/335/38
f 85/110/31 83/112/31 87/336/31
f 83/113/36 88/115/36 87/337/36
f 87/116/35 86/118/35 85/338/35
f 82/119/34 88/121/34 84/339/34
f 81/122/37 84/124/37 83/340/37
f 85/125/38 82/127/38 81/341/38
f 90/128/31 91/130/31 92/342/31
f 92/131/38 95/133/38 96/343/38
f 96/134/34 93/136/34 94/344/34
f 94/137/36 89/139/36 90/345/36
f 95/140/35 89/142/35 93/346/35
f 92/143/37 94/145/37 90/347/37
f 101/146/31 99/148/31 103/348/31
f 99/149/36 104/151/36 103/349/36
f 103/152/35 102/154/35 101/350/35
f 98/155/34 104/157/34 100/351/34
f 97/158/37 100/160/37 99/352/37
f 101/161/38 98/163/38 97/353/38
f 106/164/38 107/166/38 108/354/38
f 108/167/34 111/169/34 112/355/34
f 111/170/36 110/172/36 112/356/36
f 110/173/31 105/175/31 106/357/31
f 111/176/35 105/178/35 109/358/35
f 108/179/37 110/181/37 106/359/37
f 114/182/34 115/184/34 116/360/34
f 116/185/36 119/187/36 120/361/36
f 120/188/31 117/190/31 118/362/31
f 118/191/38 113/193/38 114/363/38
f 119/194/35 113/196/35 117/364/35
f 116/197/37 118/199/37 114/365/37
f 122/206/41 124/208/41 123/366/41
f 127/221/36 129/223/36 128/367/36
f 132/230/38 133/232/38 134/368/38
f 134/233/34 137/235/34 138/369/34
f 138/236/36 135/238/36 136/370/36
f 136/239/31 131/241/31 132/371/31
f 137/242/35 131/244/35 135/372/35
f 134/245/37 136/247/37 132/373/37
f 140/254/38 142/256/38 141/374/38
